<svg xmlns="http://www.w3.org/2000/svg" version="1.1" xmlns:xlink="http://www.w3.org/1999/xlink" xmlns:svgjs="http://svgjs.com/svgjs" width="1280" height="600" preserveAspectRatio="none" viewBox="0 0 1280 600"><g mask="url(&quot;#SvgjsMask1013&quot;)" fill="none"><rect width="1280" height="600" x="0" y="0" fill="rgba(26, 26, 64, 1)"></rect><path d="M200.79 128.79 a163.02 163.02 0 1 0 326.04 0 a163.02 163.02 0 1 0 -326.04 0z" fill="rgba(250, 88, 182, 0.4)" class="triangle-float3"></path><path d="M-0.45 137.57 a189.77 189.77 0 1 0 379.54 0 a189.77 189.77 0 1 0 -379.54 0z" fill="rgba(250, 88, 182, 0.4)" class="triangle-float2"></path><path d="M304.13 511.68 a177.49 177.49 0 1 0 354.98 0 a177.49 177.49 0 1 0 -354.98 0z" fill="rgba(250, 88, 182, 0.4)" class="triangle-float3"></path><path d="M1082.93 124.58 a144.52 144.52 0 1 0 289.04 0 a144.52 144.52 0 1 0 -289.04 0z" fill="rgba(250, 88, 182, 0.4)" class="triangle-float3"></path><path d="M508.38 382.36 a135.29 135.29 0 1 0 270.58 0 a135.29 135.29 0 1 0 -270.58 0z" fill="rgba(250, 88, 182, 0.4)" class="triangle-float2"></path><path d="M807.9 84.15 a149.47 149.47 0 1 0 298.94 0 a149.47 149.47 0 1 0 -298.94 0z" fill="rgba(250, 88, 182, 0.4)" class="triangle-float1"></path><path d="M847.56 143.67 a153.55 153.55 0 1 0 307.1 0 a153.55 153.55 0 1 0 -307.1 0z" fill="rgba(250, 88, 182, 0.4)" class="triangle-float3"></path><path d="M100.14 463.75 a176.34 176.34 0 1 0 352.68 0 a176.34 176.34 0 1 0 -352.68 0z" fill="rgba(250, 88, 182, 0.4)" class="triangle-float3"></path></g><defs><mask id="SvgjsMask1013"><rect width="1280" height="600" fill="#ffffff"></rect></mask><style>
            @keyframes float1 {
                0%{transform: translate(0, 0)}
                50%{transform: translate(-10px, 0)}
                100%{transform: translate(0, 0)}
            }

            .triangle-float1 {
                animation: float1 5s infinite;
            }

            @keyframes float2 {
                0%{transform: translate(0, 0)}
                50%{transform: translate(-5px, -5px)}
                100%{transform: translate(0, 0)}
            }

            .triangle-float2 {
                animation: float2 4s infinite;
            }

            @keyframes float3 {
                0%{transform: translate(0, 0)}
                50%{transform: translate(0, -10px)}
                100%{transform: translate(0, 0)}
            }

            .triangle-float3 {
                animation: float3 6s infinite;
            }
        </style></defs></svg>